<?xml version="1.0" encoding="UTF-8"?>
<svg width="278px" height="241px" viewBox="0 0 278 241" version="1.1" xmlns="http://www.w3.org/2000/svg" xmlns:xlink="http://www.w3.org/1999/xlink">
    <!-- Generator: Sketch 52.2 (67145) - http://www.bohemiancoding.com/sketch -->
    <title>Asset 1</title>
    <desc>Created with Sketch.</desc>
    <g id="Page-1" stroke="none" stroke-width="1" fill="none" fill-rule="evenodd">
        <g id="Asset-1" fill="#FFFFFF">
            <path d="M26.33,0 C50.33,0 62.42,18.36 62.42,36.71 C62.42,55.06 50.35,73.32 26.33,73.32 L0,73.32 L0,0 L26.33,0 Z M26.33,62.73 C43.33,62.73 51.93,49.73 51.93,36.73 C51.93,23.73 43.32,10.61 26.33,10.61 L10.59,10.61 L10.59,62.73 L26.33,62.73 Z" id="Shape" fill-rule="nonzero"></path>
            <path d="M74,11.33 C80.9794618,4.21053405 90.5300611,0.198877959 100.5,0.198877959 C110.469939,0.198877959 120.020538,4.21053405 127,11.33 C141.548754,26.0286739 141.548754,49.7013261 127,64.4 C120.020538,71.5194659 110.469939,75.531122 100.5,75.531122 C90.5300611,75.531122 80.9794618,71.5194659 74,64.4 C59.4512464,49.7013261 59.4512464,26.0286739 74,11.33 M119.43,18.88 C114.404081,13.8052558 107.572165,10.9286596 100.43,10.88 C93.3491644,10.9139738 86.5802154,13.7974452 81.65,18.88 C76.6010487,23.9138862 73.7633075,30.7503493 73.7633075,37.88 C73.7633075,45.0096507 76.6010487,51.8461138 81.65,56.88 C86.5802154,61.9625548 93.3491644,64.8460262 100.43,64.88 C111.267481,64.7830592 120.996704,58.2152599 125.138802,48.2001012 C129.280901,38.1849424 127.03303,26.6636213 119.43,18.94" id="Shape" fill-rule="nonzero"></path>
            <path d="M149,11.33 C155.979462,4.21053405 165.530061,0.198877959 175.5,0.198877959 C185.469939,0.198877959 195.020538,4.21053405 202,11.33 C216.548754,26.0286739 216.548754,49.7013261 202,64.4 C195.020538,71.5194659 185.469939,75.531122 175.5,75.531122 C165.530061,75.531122 155.979462,71.5194659 149,64.4 C134.451246,49.7013261 134.451246,26.0286739 149,11.33 M194.43,18.88 C189.404081,13.8052558 182.572165,10.9286596 175.43,10.88 C168.349164,10.9139738 161.580215,13.7974452 156.65,18.88 C151.601049,23.9138862 148.763308,30.7503493 148.763308,37.88 C148.763308,45.0096507 151.601049,51.8461138 156.65,56.88 C161.580215,61.9625548 168.349164,64.8460262 175.43,64.88 C186.267481,64.7830592 195.996704,58.2152599 200.138802,48.2001012 C204.280901,38.1849424 202.03303,26.6636213 194.43,18.94" id="Shape" fill-rule="nonzero"></path>
            <path d="M48.87,115.05 C44.29,128.05 39.37,141.71 35.25,153.84 L26.67,153.84 L0,73.16 L12,73.16 L31.13,131 L44.29,93.53 L53.56,93.53 L66.56,130.84 C72.85,111.73 79.83,91.36 85.78,73.16 L98,73.16 L71.3,153.84 L62.72,153.84 L48.87,115.05 Z" id="Path"></path>
            <path d="M126.74,129.58 L98,129.58 C94.91,136.9 90.91,146.52 88.39,153.15 L75.93,153.15 L108.08,72 L116.55,72 L148.71,153.13 L136.35,153.13 L126.74,129.58 Z M102.36,118.71 L122.27,118.71 L112.43,90.44 L102.36,118.71 Z" id="Shape" fill-rule="nonzero"></path>
            <polygon id="Path" points="160.15 106.92 194.02 106.92 194.02 73.16 205.7 73.16 205.7 153.16 194.02 153.16 194.02 118.37 160.15 118.37 160.15 153.16 148.59 153.16 148.59 73.16 160.15 73.16"></polygon>
            <path d="M57.75,153.71 C86.14,153.71 100.4,175.41 100.4,197.11 C100.4,218.81 86.14,240.37 57.75,240.37 L26.64,240.37 L26.64,153.71 L57.75,153.71 Z M57.75,227.85 C77.84,227.85 88,212.48 88,197.11 C88,181.74 77.84,166.24 57.75,166.24 L39.16,166.24 L39.16,227.85 L57.75,227.85 Z" id="Shape" fill-rule="nonzero"></path>
            <path d="M113.53,164.92 C121.777863,156.514976 133.059107,151.779645 144.835,151.779645 C156.610893,151.779645 167.892137,156.514976 176.14,164.92 C193.329344,182.297318 193.329344,210.272682 176.14,227.65 C167.892137,236.055024 156.610893,240.790355 144.835,240.790355 C133.059107,240.790355 121.777863,236.055024 113.53,227.65 C96.3406564,210.272682 96.3406564,182.297318 113.53,164.92 M167.21,173.84 C161.262559,167.867149 153.19871,164.482058 144.77,164.42 C136.40885,164.454647 128.412652,167.849157 122.58,173.84 C116.624876,179.789511 113.278849,187.86215 113.278849,196.28 C113.278849,204.69785 116.624876,212.770489 122.58,218.72 C128.40838,224.718318 136.406463,228.117233 144.77,228.15 C157.577719,228.026094 169.071055,220.258458 173.962177,208.420808 C178.853299,196.583159 176.19488,182.96825 167.21,173.84" id="Shape" fill-rule="nonzero"></path>
            <path d="M202,164.92 C210.247863,156.514976 221.529107,151.779645 233.305,151.779645 C245.080893,151.779645 256.362137,156.514976 264.61,164.92 C281.799344,182.297318 281.799344,210.272682 264.61,227.65 C256.362137,236.055024 245.080893,240.790355 233.305,240.790355 C221.529107,240.790355 210.247863,236.055024 202,227.65 C184.810656,210.272682 184.810656,182.297318 202,164.92 M255.68,173.84 C249.737506,167.859803 241.670489,164.473381 233.24,164.42 C224.87885,164.454647 216.882652,167.849157 211.05,173.84 C205.094876,179.789511 201.748849,187.86215 201.748849,196.28 C201.748849,204.69785 205.094876,212.770489 211.05,218.72 C216.87838,224.718318 224.876463,228.117233 233.24,228.15 C246.052365,228.035516 257.553742,220.268632 262.446605,208.42677 C267.339468,196.584908 264.674821,182.964855 255.68,173.84" id="Shape" fill-rule="nonzero"></path>
        </g>
    </g>
</svg>